# xmcd
#
# Track frame offsets: 
#        150
#        12862
#        22925
#        36287
#        51312
#        67125
#        83550
#        96637
#        108130
#        120482
#        132337
#        144112
#        156150
#        176437
#
# Disc length: 2553 seconds
#
# Revision: 2
# Processed by: cddbd v1.5.2PL0 Copyright (c) Steve Scherf et al.
# Submitted via: ExactAudioCopyFreeDBPlugin 1.0
#
DISCID=b209f70e
DTITLE=Georgie Fame - Get Away With
DYEAR=1993
DGENRE=Oldies
TTITLE0=Yeh Yeh
TTITLE1=Green Onions
TTITLE2=Let The Good Times Roll
TTITLE3=Sitting In The Park
TTITLE4=Funny How Time Slips Away
TTITLE5=Shop Around
TTITLE6=Baby Please Don't Go
TTITLE7=Get Away
TTITLE8=Eso Beso
TTITLE9=In The Meantime
TTITLE10=Sunny
TTITLE11=Ride Your Pony
TTITLE12=Night Train
TTITLE13=I Love The Life I Live
EXTD=
EXTT0=
EXTT1=
EXTT2=
EXTT3=
EXTT4=
EXTT5=
EXTT6=
EXTT7=
EXTT8=
EXTT9=
EXTT10=
EXTT11=
EXTT12=
EXTT13=
PLAYORDER=
